<?xml version="1.0" encoding="utf-8"?>
<!-- Generator: Adobe Illustrator 26.3.1, SVG Export Plug-In . SVG Version: 6.00 Build 0)  -->
<svg version="1.0" id="Layer_1" xmlns="http://www.w3.org/2000/svg" xmlns:xlink="http://www.w3.org/1999/xlink" x="0px" y="0px"
	 viewBox="0 0 1115.6 300" style="enable-background:new 0 0 1115.6 300;" xml:space="preserve">
<style type="text/css">
	.st0{fill:#4480BE;}
</style>
<g>
	<g>
		<g>
			<path class="st0" d="M129.8,82.9h-26.1l-0.9,4.1c-0.5,1.4-0.5,2.8-0.9,4.6c-5.5,31.2-11,62.8-17,94
				c-2.3,13.3-12.8,23.4-26.1,25.7c-20.6,3.2-31.7-7.8-28-28.4c4.6-23.9,8.7-48.2,12.8-72.5v-0.9c0.9-4.1,1.4-8.7,2.3-12.8
				c0.5-3.7,0.9-6,0.9-7.8l0.9-5.5H22l-0.5,3.7c-0.5,1.4-0.9,2.8-0.9,5c-0.5,3.2-1.4,6.9-1.8,10.1c-2.8,16.5-6,33-8.7,49.5
				c-2.8,15.6-6.9,30.7-6.9,46.3c0,16.1,10.1,29.4,25.7,34.4c11.9,3.7,24.3,4.1,36.2,1.4c23.9-5.5,39.5-19.7,44.5-44
				c5.5-26.6,10.1-53.2,14.7-79.8L129.8,82.9z"/>
		</g>
		<polyline class="st0" points="131.6,232.9 157.7,82.5 169.7,82.5 222.4,173.8 238,82.5 262.3,82.5 236.2,232.9 226.1,232.9 
			172.9,138 156.4,232.9 132,232.9 		"/>
		<polygon class="st0" points="291.2,82.9 387.1,82.9 382.5,107.7 316.4,107.2 310,140.3 357.7,140.3 353.1,162.3 305,162.3 
			291.2,232.9 262.3,232.9 		"/>
	</g>
	<g>
		<polygon class="st0" points="944.5,141.5 890.2,141.5 900.6,84.4 873,84.4 846.3,232.9 873.9,232.9 886.1,164.1 940.4,164.1 
			927.7,232.9 955.8,232.9 982.5,84.4 954.5,84.4 		"/>
		<path class="st0" d="M830.9,84.4L792,165.9l-26.8-81.5h-27.6l32.6,100c-6.3,17.2-40.7,19-39.8,19s-3.2,29.4-3.2,29.4
			s26.7,5.4,59.3-22.2c36.2-30.8,70.2-125.4,71.1-126.3h-26.7V84.4z"/>
		<path class="st0" d="M1073.5,194.9c-8.2,11.3-19,17.2-33,17.2c-10,0-17.7-5-21.7-14.5c-1.4-3.2-2.7-6.8-3.2-10.4
			c-0.9-4.1-0.9-8.2-0.9-13.1c0.9-21.7,6.8-42.1,22.6-58.4c7.2-7.2,16.3-11.3,27.2-10c16.3,1.8,23.5,9,24.9,25.3
			C1091.6,154.1,1087.1,175.9,1073.5,194.9 M1115.6,128.8c-1.4-18.1-9.1-33-26.3-40.7c-25.4-11.3-57.9-5.4-77,18.6
			c-15.8,20.4-24,43.5-23.5,71.1c-0.5,6.3,0.5,14.5,2.3,22.6c5.4,19,19.9,33,38,34.9c28.1,2.7,51.6-6.3,68.4-30.3
			C1112.9,181.7,1117.4,155.5,1115.6,128.8"/>
	</g>
	<g id="GFNmGW_00000075148560864044250590000003000288478523929015_">
		<g>
			<path class="st0" d="M624.9,281.6c-4.9-0.2-9.7,0.2-14.4,1.3c-10.6,2.6-20.2,0.2-29.3-5.4c-4-2.5-8-4.8-12.6-6
				c-4.8-1.3-6.4,0.2-5.7,5c0.7,4.6,1.6,9.2,2.3,13.8c0.5,3.4,0,6.5-3.1,8.6c-2.5,1.6-5.2,1.4-7.6-0.3c-3.1-2.1-3.2-5.2-2.6-8.6
				c0.8-4.6,1.4-9.2,2.2-13.8c0.7-4.3-1.2-5.7-5.2-4.8c-3.9,0.9-7.4,2.7-10.7,4.8c-10.5,7-21.8,9.7-34.3,6.3
				c-5.8-1.6-11.8-0.8-17.7-0.8c-2.9,0-5.1-0.8-7.1-3c-8.3-9.3-18.9-13.1-31.2-13.1c-1.3,0-2.5,0-3.8-0.1c-1.9-0.2-3.6-0.9-4.3-2.7
				c-0.8-2,0.6-3.4,1.9-4.6c2.1-2.1,4.7-3.3,7.3-4.5c4.8-2.3,8.9-5.5,12-9.7c2.5-3.3,2.8-6.4-1.7-8.1c-2.7-1-3.6-2.1-2.3-5.1
				c1.6-3.6-1.7-4.6-4.1-5.6c-6.7-2.7-13.5-5-19.8-8.4c-2.2-1.2-4.3-2.6-6.4-3.9c-3.4-2.1-5.1-4.5-3.1-8.8c1.9-4.2,0.5-8.1-3.9-10.4
				c-4.9-2.7-9.1-6.3-13-10.3c-2.4-2.5-2.9-4.3-0.1-7.2c5.1-5.2,4.7-10.7-0.6-16c-4.1-4.1-8.1-8.2-10.5-13.5c-2.7-5.9-1.5-8.1,4.8-8
				c5.7,0.1,11.4,1,17.1,1.2c7.3,0.2,9.4-2.6,7.9-9.6c-1.4-6.3-0.7-6.9,5.7-5.4c4.8,1.1,9.1,3.2,13.1,5.9c6,3.9,12.5,6.3,19.8,5
				c4.6-0.8,5.2-2.6,2.2-6.1c-3-3.4-4.7-6.4-1.5-10.8c2.4-3.3,0.4-6.6-1.7-9.3c-3-4-6.6-7.6-9.4-11.7c-3.5-5.1-2-7.9,4.1-8.5
				c3.3-0.4,6.4,0.5,9.5,1.6c4.7,1.7,9.5,3.2,14.7,2.8c1.6-0.1,3.7,0.1,4.7-0.8c4.1-3.7,8.5-5.1,14.1-3.8c2.6,0.6,3.3-1.5,2.2-3.9
				c-1.4-3.3-3.2-6.4-4.3-9.8c-1.5-4.6-0.2-6.1,4.7-6.5c2.6-0.2,4.9,0.6,7.3,1.5c1.9,0.7,3.9,0.9,5.5-0.8c1.7-1.8,1.8-3.9,0.7-6
				c-2-4.2-4.2-8.3-5.1-12.9c-0.4-2.2-0.6-4.5,1.1-6.1c1.9-1.8,3.7,0.2,5.4,0.9c11.8,5.4,20.2,2.1,25.2-10.4
				c3.7-9.3,5.9-19.2,10-28.3c0.5-1.1,1-2.3,1.6-3.4c2.5-4.6,4.6-4.7,7-0.1c4.4,8.3,6.8,17.3,9.7,26.1c1,3,2,6.2,3.6,9
				c5.5,9.9,13.1,12.1,24.1,7.1c5-2.3,6-1.5,6,4.1c0,4.1-2.1,7.5-3.9,11c-1.4,2.8-2.6,5.8-0.5,8.6c2.3,3.1,5.1,1.1,7.8,0.4
				c1.9-0.5,3.9-0.6,5.8-0.5c3.5,0.3,5.2,2,4,5.8c-1.1,3.2-2.3,6.3-4,9.4c-2.1,3.8-0.9,5.7,3.3,4.8c4.4-0.9,7.4,0.1,11.1,2.9
				c4.5,3.5,10.3,1.9,15.6,0.5c4.3-1.1,8.3-3.4,13-3.3c2.7,0.1,5.8,0,7.2,2.7c1.5,2.8-0.6,5.2-2.2,7.2c-2.5,3.3-5.3,6.3-7.9,9.5
				c-3.1,3.8-4.4,7.8-1.2,12.2c2.5,3.4-0.2,5.6-2.1,7.9c-1.2,1.5-3.3,2.7-2.3,5c1,2.1,3.3,2.2,5.2,2.3c6.6,0.3,12.8-1.4,18.3-5.1
				c4.5-3.1,9.3-5.3,14.7-6.3c4-0.8,6,0,4.7,4.6c-0.5,1.7-0.6,3.5-0.5,5.3c0.1,4.2,2.9,5.5,6.6,5.4c6.1-0.3,12.1-1,18.2-1.2
				c7.2-0.2,8.2,1.7,5,8.3c-2.4,5.1-6,9.3-10,13.2c-5.9,5.9-6.2,10.2-0.6,16.2c2.4,2.5,1.8,4.2,0.1,6.5c-3.3,4.4-8,7.1-12.5,10
				c-5.6,3.5-6.7,5.8-4.6,12c1.3,3.7-0.1,5.8-2.8,7.7c-7.3,5.1-15.5,8.2-23.6,11.5c-3.8,1.5-10.5,1.5-6.3,9c0.8,1.4-1.2,1.8-2.3,2.4
				c-5.3,2.8-5.6,4.1-2.2,9c3.6,5,8.7,7.8,14,10.6c3.2,1.7,8.1,3.1,7,7.6c-1.1,4.2-5.9,2.9-9.4,3c-11,0.2-21.2,3.1-28.5,11.6
				C635.3,282.1,630.3,281.8,624.9,281.6z M558.4,33.3c-2.1,4.7-3.6,8.9-5.6,12.8c-4.4,8.9-11.4,15.5-22.7,12.8
				c-4.2-1-6.1,1.3-5.2,5.6c0.6,3.1,2,6.1,2.7,9.3c1.7,7.1,0.3,9-7,9.3c-4.2,0.2-6.1,2.1-4.9,6.2c1,3.6,2.6,7,3.7,10.6
				c1.3,4.2-0.6,6.4-4.9,5.5c-2.2-0.5-4.3-1.6-6.5-2.5s-4.4-1.8-6.7-0.6c-7,3.5-14.4,2.1-21.7,2.2c-2.2,0-5.2-2.1-6.5,0.2
				c-1.4,2.4,1.6,4.4,2.8,6.5c1.3,2.3,2.9,4.5,4.6,6.6c2.1,2.7,3.3,5.6,3.1,8.9c-0.3,7.3,2.8,13.1,7.1,18.6c2,2.5,3.9,5.1,5.7,7.8
				c1,1.5,2.1,3.3,0.7,5c-1.5,1.8-3.3,0.4-4.9-0.3c-4.5-2.2-8.6-5.1-12.6-8.2c-3-2.3-6.4-4.5-10.3-4c-8.6,1.1-16.7-0.4-24.7-3.6
				c-2.6-1-4.3-0.2-5.6,2.4c-3.1,6-5.9,7.2-12.6,6c-2.5-0.4-4.9-1-7.4-1.4c-1.6-0.2-3.4-0.6-4.5,0.9c-1.2,1.6,0,3.1,0.9,4.4
				c1.8,2.6,3.8,5.2,5.7,7.8c2.7,3.6,2.8,7.2-0.2,10.7c-4.8,5.5-4.4,7.9,2.2,11.5c4.9,2.7,10,4.9,14.7,7.9c6.1,3.8,6.3,6.1,1,10.9
				c-3.4,3.1-2.7,5.5,0.8,7.7c3.7,2.3,7.7,3.7,12.1,4.3c8.9,1.2,17.8,1.8,26.6,4c1.9,0.5,4.2,0.8,4.6,3.1c0.5,2.2-1.7,2.9-3.2,3.8
				c-2.9,1.8-5.1,4.3-5.3,7.7c-0.4,6.6-2.7,12.1-7.8,16.4c-3,2.5-1.9,4.6,1.4,5.9c2.8,1.1,6.2,1.8,7.9,4.4
				c5.4,8.7,13.4,11.2,23,10.5c0.9-0.1,1.9,0.2,2.6,0.6c8.7,5.3,16.8,1.9,25-1.6c16.9-7.1,34.1-11.2,52.2-4.4c6,2.2,12,4.6,18.1,6.8
				c4.4,1.6,8.9,3.4,13.5,1.2c4.7-2.2,9.5-2.9,14.6-3c5.5-0.2,10.5-1.4,13.5-7c2-3.7,5.8-5.7,9.8-7.2c5-1.9,5.4-3.5,1.6-7.1
				c-3.8-3.5-6.3-7.4-6.5-12.5c-0.3-5.1-2.1-8.8-6.5-11.5c-3.6-2.1-2.6-4.4,0.7-5.7c3.8-1.5,8-1.9,12.1-2.6
				c8.3-1.4,16.9-1.2,24.8-4.5c7.1-2.9,7.7-6,2.3-10.9c-3-2.7-2.8-5.3,0.1-7.6c2.4-1.9,5-3.5,7.6-4.9c3.6-2,7.5-3.6,11-5.7
				c5.3-3.3,5.7-5.9,1.4-10.5c-3.7-3.9-3.1-7.6-0.2-11.5c2-2.7,4.2-5.4,6-8.2s0.7-4.6-2.6-4.2c-3.4,0.3-6.7,1.2-10.1,1.6
				c-4.5,0.6-9.1,0.4-10.8-4.6c-1.8-5.2-4.8-4.9-8.7-3.3c-5.4,2.1-10.8,4.2-16.7,3.2c-6.7-1.1-12.3,0.4-17.5,4.8
				c-3.7,3.1-7.7,5.8-12.2,7.8c-1.3,0.6-2.8,1.2-4-0.2c-0.9-1.1-0.4-2.4,0.1-3.6c1.6-3.4,3.8-6.4,6.3-9.3c4.3-5,7.4-10.5,7.1-17.4
				c-0.2-3.9,1.2-7.3,3.6-10.4c2.2-2.9,4.1-5.9,6-8.9c0.7-1.2,2-2.5,1-3.9s-2.6-0.5-4-0.4c-8.2,0.4-16.5,1.8-24.3-1.9
				c-1.7-0.8-3.5-0.5-5.2,0.3c-1.5,0.7-2.9,1.4-4.4,1.9c-2.5,0.8-5.3,2.5-7.5,0c-1.9-2.1-0.6-4.8,0.2-7.1c0.9-2.3,1.9-4.6,2.5-7
				c1.3-5.1-0.2-6.9-5.5-7.1c-6.1-0.3-7.6-2-6.4-8c0.7-3.7,2.2-7.2,2.9-10.9c0.6-3.3-0.6-5.6-4.6-5.5c-14.4,0.3-20.1-3.6-25.4-17
				C561.2,39.2,560.9,36.3,558.4,33.3z"/>
			<path class="st0" d="M551.6,151.9c-0.7-16.9-1.5-33.9-2.2-50.8c-0.2-5.4-0.5-10.7,0.9-16c1.3-4.7,3.2-9.9,8.3-10.1
				c5.5-0.2,7.1,5.3,8.2,9.8c2,8.5,0.8,17.1,0.5,25.6c-0.9,26.8-1.6,53.6,0.4,80.3c0.2,2.7,1.7,3.7,4,4.3c2,0.5,3.9,0.5,5.8,0
				c2.3-0.5,4.3-0.3,5.6,1.9c0.8,1.3,0.7,2.8-0.2,4c-1.4,2-3.4,2.6-5.7,1.9c-2.5-0.7-4.5-0.1-6.6,1.1c-3.7,2.3-5.9,4.3-4.7,9.8
				c2.1,9.5,0.5,19.3,0.1,29c-0.1,2.2-0.2,4.3,0.6,6.3c1.5,3.9-0.2,5.8-3.9,6.5c-2.8,0.5-5.7,0.5-8.6,0c-2.7-0.5-4.3-2-3.8-4.9
				c1.9-9.9-0.5-19.5-1.4-29.3c-0.3-3.1-0.2-6,0.5-9c1.4-6.1-2.4-10.4-8.8-9.7c-1.4,0.1-2.8,0.7-4.2,0.2c-2-0.8-3.4-2.2-3.1-4.5
				c0.3-2.2,1.8-3.5,4-3.6c1.1,0,2.1,0.3,3.2,0.4c6.7,0.8,9.3-1,9.3-7.6C550,175.8,551.9,163.9,551.6,151.9z M558.3,151.1
				c-1,11.1-1.6,22.2-1.5,33.3c0,3.6-0.3,7.1-4.1,9.6c4.1,1.4,7.6,2.1,10.1,0.6C557.9,180.1,561.6,165.2,558.3,151.1z"/>
			<path class="st0" d="M612.8,121.6c-1.7,25.7-1,50.9-1.1,76.1c0,6.8,0.7,13.5,2.5,20.2c0.5,1.9,0.6,3.9,0.7,5.8
				c0.1,3.9-1.8,5.3-5.8,4.9c-6.4-0.5-12.7-2.1-19.2-1c-5.2,0.9-10.1,2.1-14.3,5.5c-1.3,1-2.9,1.8-4.5,0.7c-1.7-1.1-1.3-2.9-0.6-4.4
				c2.3-5.1,2.5-10.1,1.4-15.7c-1-4.9,2.6-6.8,7-7.7c7.8-1.7,10-4.4,8.9-10.1c-0.6-3.3-2-5.7-5.9-5.6c-4.8,0.1-6.6-2.5-5.4-6.9
				c2.5-8.9,1.5-17.8,0.3-26.6c-0.7-4.8-0.7-9.6-0.7-14.4c0-4.5,1.7-8.2,4.9-11.5c8-8.2,17.9-13.7,27-20.3c2.5-1.8,3.5-0.5,4.1,1.8
				C613,115.7,612.8,118.9,612.8,121.6z M604.2,136.6c-0.2-3.2,0.4-6.2-2.6-7.7c-2.8-1.4-5.2,0.3-7.5,1.7s-4.1,3.4-5.4,5.8
				c-3,5.8-3.6,11.9-2.2,18.2c1.6,7.2,2.3,14.4,0.7,21.7c-0.9,4.3,0.8,7.7,4.2,10.2c2.7,1.9,5.7,3.5,9,1.8c3.1-1.6,2.6-4.9,2.3-7.7
				c-0.5-5-1.3-9.9-0.6-14.9C603.6,156,602.1,146,604.2,136.6z M604.1,210.9c-0.1-5-3.6-7.6-7.1-5.1c-3.9,2.8-8,5.3-12.4,7.3
				c-1.5,0.7-2.8,1.9-2.1,3.8c0.7,2.1,2.5,2.4,4.4,1.8c3.8-1.3,7.6-1.6,11.6-1.5C602.6,217.2,604.2,214.7,604.1,210.9z"/>
			<path class="st0" d="M540.7,147.1c0.7,7-1.2,13.1-1.1,19.4c0.1,5.7-0.3,11.4,1,17.1c0.9,3.9-0.1,6.9-4.9,6.9
				c-4,0-5.8,2.3-6.5,5.8c-0.8,3.8,0.7,6.8,4.2,8.3c2.3,1,4.8,1.3,7.2,2.1c4.3,1.4,6.4,4.3,4.7,8.6c-1.6,4.2-1,8,0.7,11.9
				c0.9,2.1,2.3,4.7,0.1,6.5c-2.3,1.9-4.2-0.3-6.1-1.7c-6.2-4.5-13.3-4.8-20.5-4.7c-3.2,0.1-6.4,0.6-9.6,1c-6.7,0.7-8.7-1.2-7.4-7.8
				c1.3-6.8,2.4-13.6,3-20.6c1.4-18.4,0.2-36.8-0.2-55.2c-0.2-9.5-0.2-18.9-0.2-28.4c0-2.1-0.7-4.7,1.3-6c2.3-1.5,3.9,1.1,5.5,2.2
				c6.2,4.2,12.2,8.7,18.4,13C538.1,130.9,542.8,137.8,540.7,147.1z M531.1,150c-0.1-8.6-2-15.3-8.7-19.6c-2.1-1.3-4.4-2.9-7-1.4
				c-2.7,1.6-2.6,4.5-2.4,7.2c1.3,15.6,2.9,31.2,1.2,46.9c-0.5,4.9,2.8,7.2,7.6,5.7c5.6-1.8,8.9-6.8,7.8-12.9
				c-1.2-6.6-0.9-13.1,0.6-19.6C530.8,153.9,530.9,151.4,531.1,150z M512.9,211.5c0.2,3.3,1.7,5.8,5.8,5.7c3.6-0.1,7.1,0.1,10.6,1.3
				c1.9,0.7,4.1,1.3,5.1-1.2c1.1-2.6-1-4-3-4.9c-3.7-1.5-7.1-3.4-10-6.1c-1.5-1.4-3.3-2.3-5.4-1.1
				C513.8,206.5,512.9,208.6,512.9,211.5z"/>
			<path class="st0" d="M499.3,191.8c0,3.4-3.5,5.3-7.1,3.7c-3.1-1.4-5.9-3.3-8.8-5.1c-3.1-2-6-2.2-8.6,0.7c-0.5,0.5-1.1,1-1.7,1.4
				c-2.5,1.6-5,5.4-8.3,2.1c-3.5-3.5,0.4-5.6,2.6-7.7c2.9-2.7,0.3-3.6-1.5-4.6c-7.3-3.7-14.7-7.4-22.1-11c-1.4-0.7-2.9-1.4-4.3-2.2
				c-2.1-1.2-4.1-2.9-2.8-5.6c1.3-2.7,3.9-2.3,6.1-1.2c8.1,3.9,16.1,7.9,24.1,11.8c1.4,0.7,2.9,1.4,4.3,2.1c2.1,1,3.5,0.6,3.6-2
				c0-0.4,0-0.7,0-1.1c0.2-3.1-0.7-7.4,3.9-7.4c5,0,4.9,4.7,4.6,8.1c-0.5,5.8,2,9.1,7.2,10.9c2,0.7,3.9,1.9,5.7,2.9
				C498.1,188.5,499.3,189.8,499.3,191.8z"/>
			<path class="st0" d="M638.2,188.6c-2.6,0.2-4.5,1.7-6.5,2.8c-2.2,1.3-4.2,2.7-6.4,3.9c-2.5,1.3-5,1.4-6.5-1.3
				c-1.5-2.6-0.5-4.9,1.9-6.4c2.1-1.3,4.3-2.6,6.7-3.5c4.2-1.6,6.4-4.3,6.3-8.8c0-1.6,0.3-3.2,0.5-4.8c0.3-2.7,0.9-5.2,4.2-5
				c3,0.2,3.4,2.6,3.6,5.1c0.6,7.1,0.6,7.1,7.2,3.8c7.9-3.9,15.7-7.9,23.7-11.6c2.5-1.2,5.7-2.9,7.4,1c1.4,3.3-1.4,4.7-3.9,6
				c-8.2,4.1-16.3,8.2-24.6,12.2c-3.4,1.7-4.6,3.2-1,6c2,1.6,3.9,3.8,1.8,6.4c-2.3,2.8-4.8,1.1-7-0.6
				C643.2,191.9,641.2,189.5,638.2,188.6z"/>
			<path class="st0" d="M484.6,257.9c-4.7,0-6.4-2.9-4.4-6.2c1.7-2.8,4.4-4.2,7.3-5.1c12-4.1,24.4-7.2,35.6-13.5
				c2.3-1.3,5.1-1.4,6.5,1.5c1.4,3-0.2,5.2-3,6.4c-4.5,1.9-9,3.6-13.5,5.3c-7.6,2.8-15.1,5.6-22.4,9.2
				C488.5,256.6,486.1,257.3,484.6,257.9z"/>
			<path class="st0" d="M632.8,257.9c-0.9-0.3-2.4-0.5-3.6-1.1c-11.1-5.8-23.2-9.5-34.8-14.1c-3.6-1.4-9.3-2.8-6.7-8.1
				c2.5-5.1,6.9-1.3,10.2,0.4c8.8,4.5,18.3,7.2,27.7,10.1c4.1,1.3,8.2,2.7,11.1,6.2c1.2,1.4,2,3.1,0.9,4.9
				C636.6,257.7,635,258,632.8,257.9z"/>
		</g>
	</g>
	<g>
		<g>
			<path class="st0" d="M0.2,266.9h2v10c0,0.9,0.3,1.6,0.8,2.2c0.6,0.6,1.3,0.9,2.2,0.9c1,0,1.8-0.3,2.3-0.8
				c0.6-0.6,0.8-1.3,0.8-2.3v-10h2v10.2c0,1.5-0.5,2.6-1.4,3.5c-0.9,0.8-2.2,1.2-3.8,1.2s-2.9-0.4-3.8-1.2c-0.9-0.8-1.3-2-1.3-3.5
				v-10.2H0.2z"/>
			<path class="st0" d="M20.2,281.5l-3.4-5.3l-1.7,1.7v3.6h-1.9v-15.1h2v9.3l4.1-5h2.2l-3.4,4.1l4.2,6.6L20.2,281.5L20.2,281.5z"/>
			<path class="st0" d="M29.4,272.6c-0.4-0.3-0.8-0.4-1.2-0.4c-0.7,0-1.3,0.3-1.8,0.9s-0.8,1.4-0.8,2.2v6.1h-1.9v-10.7h1.9v1.7
				c0.7-1.3,1.7-1.9,3.1-1.9c0.3,0,0.8,0.1,1.5,0.2L29.4,272.6z"/>
			<path class="st0" d="M37.6,280.3c-0.8,1-1.9,1.4-3.5,1.4c-0.8,0-1.6-0.3-2.2-0.9c-0.6-0.6-0.9-1.4-0.9-2.3c0-1.1,0.5-2,1.4-2.7
				s2.2-1.1,3.6-1.1c0.4,0,0.9,0.1,1.4,0.3c0-1.7-0.8-2.6-2.3-2.6c-1.2,0-2.1,0.3-2.7,1l-0.8-1.6c0.4-0.3,0.9-0.5,1.5-0.8
				c0.6-0.2,1.2-0.3,1.8-0.3c1.5,0,2.7,0.4,3.4,1.1s1.1,1.8,1.1,3.4v3.8c0,0.9,0.3,1.6,0.8,1.9v0.9c-0.8,0-1.3-0.1-1.7-0.3
				C38,281.1,37.7,280.8,37.6,280.3z M37.4,276.3c-0.6-0.1-1-0.2-1.3-0.2c-1,0-1.7,0.2-2.3,0.7s-0.9,1.1-0.9,1.7
				c0,1.1,0.7,1.7,2,1.7c1,0,1.8-0.5,2.5-1.4V276.3z"/>
			<path class="st0" d="M43.2,281.5v-9.1h-1.5v-1.6h3.4v10.7H43.2z M44.2,266.8c0.3,0,0.6,0.1,0.8,0.3c0.2,0.2,0.3,0.5,0.3,0.8
				s-0.1,0.6-0.3,0.8c-0.2,0.2-0.5,0.3-0.8,0.3s-0.6-0.1-0.8-0.3c-0.2-0.2-0.3-0.5-0.3-0.8s0.1-0.6,0.3-0.8S43.9,266.8,44.2,266.8z"
				/>
			<path class="st0" d="M54.7,281.5v-6.2c0-1.1-0.2-1.9-0.5-2.4s-0.9-0.7-1.7-0.7c-0.4,0-0.9,0.1-1.4,0.4s-0.8,0.6-1.1,1v7.9h-1.9
				v-10.7h1.3l0.6,1.4c0.6-1,1.6-1.6,3.1-1.6c2.3,0,3.5,1.4,3.5,4.3v6.6L54.7,281.5L54.7,281.5z"/>
			<path class="st0" d="M60.2,281.5v-9.1h-1.5v-1.6h3.4v10.7H60.2z M61.2,266.8c0.3,0,0.6,0.1,0.8,0.3c0.2,0.2,0.3,0.5,0.3,0.8
				s-0.1,0.6-0.3,0.8c-0.2,0.2-0.5,0.3-0.8,0.3s-0.6-0.1-0.8-0.3c-0.2-0.2-0.3-0.5-0.3-0.8s0.1-0.6,0.3-0.8S60.9,266.8,61.2,266.8z"
				/>
			<path class="st0" d="M71.1,280.3c-0.8,1-1.9,1.4-3.5,1.4c-0.8,0-1.6-0.3-2.2-0.9s-0.9-1.4-0.9-2.3c0-1.1,0.5-2,1.4-2.7
				s2.2-1.1,3.6-1.1c0.4,0,0.9,0.1,1.4,0.3c0-1.7-0.8-2.6-2.3-2.6c-1.2,0-2.1,0.3-2.7,1l-0.8-1.6c0.4-0.3,0.9-0.5,1.5-0.8
				c0.6-0.2,1.2-0.3,1.8-0.3c1.5,0,2.7,0.4,3.4,1.1c0.7,0.7,1.1,1.8,1.1,3.4v3.8c0,0.9,0.3,1.6,0.8,1.9v0.9c-0.8,0-1.3-0.1-1.7-0.3
				C71.6,281.1,71.3,280.8,71.1,280.3z M71,276.3c-0.6-0.1-1-0.2-1.3-0.2c-1,0-1.7,0.2-2.3,0.7c-0.6,0.5-0.9,1.1-0.9,1.7
				c0,1.1,0.7,1.7,2,1.7c1,0,1.8-0.5,2.5-1.4C71,278.8,71,276.3,71,276.3z"/>
			<path class="st0" d="M82.4,281.5v-6.2c0-1.1-0.2-1.9-0.5-2.4s-0.9-0.7-1.7-0.7c-0.4,0-0.9,0.1-1.4,0.4s-0.8,0.6-1.1,1v7.9h-1.9
				v-10.7h1.3l0.6,1.4c0.6-1,1.6-1.6,3.1-1.6c2.3,0,3.5,1.4,3.5,4.3v6.6L82.4,281.5L82.4,281.5z"/>
			<path class="st0" d="M102.7,281.7L95.2,271v10.5h-1.9v-14.6h0.8l7.4,10.1v-10.1h1.9v14.8L102.7,281.7L102.7,281.7z"/>
			<path class="st0" d="M112.2,280.3c-0.8,1-1.9,1.4-3.5,1.4c-0.8,0-1.6-0.3-2.2-0.9s-0.9-1.4-0.9-2.3c0-1.1,0.5-2,1.4-2.7
				s2.2-1.1,3.6-1.1c0.4,0,0.9,0.1,1.4,0.3c0-1.7-0.8-2.6-2.3-2.6c-1.2,0-2.1,0.3-2.7,1l-0.8-1.6c0.4-0.3,0.9-0.5,1.5-0.8
				c0.6-0.2,1.2-0.3,1.8-0.3c1.5,0,2.7,0.4,3.4,1.1c0.7,0.7,1.1,1.8,1.1,3.4v3.8c0,0.9,0.3,1.6,0.8,1.9v0.9c-0.8,0-1.3-0.1-1.7-0.3
				C112.7,281.1,112.4,280.8,112.2,280.3z M112,276.3c-0.6-0.1-1-0.2-1.3-0.2c-1,0-1.7,0.2-2.3,0.7c-0.6,0.5-0.9,1.1-0.9,1.7
				c0,1.1,0.7,1.7,2,1.7c1,0,1.8-0.5,2.5-1.4C112,278.8,112,276.3,112,276.3z"/>
			<path class="st0" d="M117.6,272.3h-1.2v-1.5h1.2v-2.2l1.9-0.7v3h2.9v1.5h-2.9v5.3c0,0.9,0.2,1.5,0.5,1.9s0.8,0.6,1.5,0.6
				c0.5,0,1-0.1,1.5-0.4l0.3,1.7c-0.8,0.2-1.6,0.3-2.6,0.3c-0.8,0-1.6-0.3-2.1-0.9c-0.6-0.6-0.9-1.4-0.9-2.4v-6.2H117.6z"/>
			<path class="st0" d="M125.9,281.5v-9.1h-1.5v-1.6h3.4v10.7H125.9z M127,266.8c0.3,0,0.6,0.1,0.8,0.3c0.2,0.2,0.3,0.5,0.3,0.8
				s-0.1,0.6-0.3,0.8c-0.2,0.2-0.5,0.3-0.8,0.3s-0.6-0.1-0.8-0.3c-0.2-0.2-0.3-0.5-0.3-0.8s0.1-0.6,0.3-0.8
				C126.4,266.9,126.6,266.8,127,266.8z"/>
			<path class="st0" d="M130.1,276.1c0-1.6,0.4-3,1.3-4c0.9-1,2.1-1.5,3.5-1.5c1.5,0,2.7,0.5,3.6,1.5s1.3,2.3,1.3,4.1
				c0,1.7-0.4,3.1-1.3,4.1c-0.9,1-2,1.5-3.5,1.5s-2.7-0.5-3.6-1.5C130.6,279.2,130.1,277.8,130.1,276.1z M132.1,276.1
				c0,2.7,0.9,4,2.8,4c0.9,0,1.6-0.4,2.1-1.1s0.8-1.7,0.8-2.9c0-2.6-0.9-4-2.8-4c-0.9,0-1.6,0.4-2.1,1.1
				C132.4,273.9,132.1,274.9,132.1,276.1z"/>
			<path class="st0" d="M148.4,281.5v-6.2c0-1.1-0.2-1.9-0.5-2.4s-0.9-0.7-1.7-0.7c-0.4,0-0.9,0.1-1.4,0.4s-0.8,0.6-1.1,1v7.9h-1.9
				v-10.7h1.3l0.6,1.4c0.6-1,1.6-1.6,3.1-1.6c2.3,0,3.5,1.4,3.5,4.3v6.6L148.4,281.5L148.4,281.5z"/>
			<path class="st0" d="M159,280.3c-0.8,1-1.9,1.4-3.5,1.4c-0.8,0-1.6-0.3-2.2-0.9c-0.6-0.6-0.9-1.4-0.9-2.3c0-1.1,0.5-2,1.4-2.7
				s2.2-1.1,3.6-1.1c0.4,0,0.9,0.1,1.4,0.3c0-1.7-0.8-2.6-2.3-2.6c-1.2,0-2.1,0.3-2.7,1l-0.8-1.6c0.4-0.3,0.9-0.5,1.5-0.8
				c0.6-0.2,1.2-0.3,1.8-0.3c1.5,0,2.7,0.4,3.4,1.1s1.1,1.8,1.1,3.4v3.8c0,0.9,0.3,1.6,0.8,1.9v0.9c-0.8,0-1.3-0.1-1.7-0.3
				C159.5,281.1,159.2,280.8,159,280.3z M158.8,276.3c-0.6-0.1-1-0.2-1.3-0.2c-1,0-1.7,0.2-2.3,0.7s-0.9,1.1-0.9,1.7
				c0,1.1,0.7,1.7,2,1.7c1,0,1.8-0.5,2.5-1.4V276.3z"/>
			<path class="st0" d="M163.9,278.5v-12h1.9v11.7c0,0.6,0.2,1,0.5,1.4c0.3,0.3,0.8,0.5,1.3,0.5v1.7
				C165.1,281.7,163.9,280.6,163.9,278.5z"/>
			<path class="st0" d="M178,268.7v4.1h5.1v1.7H178v7.1h-2V267h9v1.8h-7V268.7z"/>
			<path class="st0" d="M195.6,276.3h-7.7c0,1.3,0.3,2.2,1,2.9c0.6,0.6,1.4,0.9,2.3,0.9c1.1,0,2-0.3,2.7-0.9l0.8,1.4
				c-0.3,0.3-0.7,0.5-1.3,0.8c-0.8,0.3-1.6,0.4-2.5,0.4c-1.3,0-2.5-0.5-3.4-1.4c-1-1-1.6-2.4-1.6-4.1c0-1.8,0.5-3.2,1.6-4.2
				c1-1,2.1-1.4,3.4-1.4c1.5,0,2.7,0.4,3.6,1.3c0.8,0.8,1.3,1.9,1.3,3.3C195.8,275.6,195.7,276,195.6,276.3z M191,272.2
				c-0.8,0-1.6,0.3-2.1,0.8s-0.9,1.2-0.9,1.9h5.9c0-0.8-0.2-1.4-0.7-1.9C192.6,272.5,191.9,272.2,191,272.2z"/>
			<path class="st0" d="M204.5,281.5v-0.8c-0.7,0.7-1.6,1-2.9,1c-1.3,0-2.4-0.5-3.3-1.4c-0.8-1-1.2-2.2-1.2-3.8c0-1.6,0.5-3,1.4-4.1
				c1-1.1,2.1-1.7,3.4-1.7c1.1,0,1.9,0.3,2.5,0.8v-5h1.9v15.1h-1.8V281.5z M204.5,273.3c-0.5-0.7-1.1-1.1-2-1.1
				c-1,0-1.8,0.4-2.5,1.1c-0.6,0.8-0.9,1.7-0.9,2.9c0,2.6,1.2,3.9,3.5,3.9c0.3,0,0.7-0.1,1.1-0.3c0.4-0.2,0.7-0.4,0.8-0.6
				L204.5,273.3L204.5,273.3z"/>
			<path class="st0" d="M218.1,276.3h-7.7c0,1.3,0.3,2.2,1,2.9c0.6,0.6,1.4,0.9,2.3,0.9c1.1,0,2-0.3,2.7-0.9l0.8,1.4
				c-0.3,0.3-0.7,0.5-1.3,0.8c-0.8,0.3-1.6,0.4-2.5,0.4c-1.3,0-2.5-0.5-3.4-1.4c-1-1-1.6-2.4-1.6-4.1c0-1.8,0.5-3.2,1.6-4.2
				c1-1,2.1-1.4,3.4-1.4c1.5,0,2.7,0.4,3.6,1.3c0.8,0.8,1.3,1.9,1.3,3.3C218.3,275.6,218.2,276,218.1,276.3z M213.5,272.2
				c-0.8,0-1.6,0.3-2.1,0.8s-0.9,1.2-0.9,1.9h5.9c0-0.8-0.2-1.4-0.7-1.9S214.4,272.2,213.5,272.2z"/>
			<path class="st0" d="M226.1,272.6c-0.4-0.3-0.8-0.4-1.2-0.4c-0.7,0-1.3,0.3-1.8,0.9s-0.8,1.4-0.8,2.2v6.1h-1.9v-10.7h1.9v1.7
				c0.7-1.3,1.7-1.9,3.1-1.9c0.3,0,0.8,0.1,1.5,0.2L226.1,272.6z"/>
			<path class="st0" d="M234.3,280.3c-0.8,1-1.9,1.4-3.5,1.4c-0.8,0-1.6-0.3-2.2-0.9c-0.6-0.6-0.9-1.4-0.9-2.3c0-1.1,0.5-2,1.4-2.7
				s2.2-1.1,3.6-1.1c0.4,0,0.9,0.1,1.4,0.3c0-1.7-0.8-2.6-2.3-2.6c-1.2,0-2.1,0.3-2.7,1l-0.8-1.6c0.4-0.3,0.9-0.5,1.5-0.8
				c0.6-0.2,1.2-0.3,1.8-0.3c1.5,0,2.7,0.4,3.4,1.1s1.1,1.8,1.1,3.4v3.8c0,0.9,0.3,1.6,0.8,1.9v0.9c-0.8,0-1.3-0.1-1.7-0.3
				C234.7,281.1,234.4,280.8,234.3,280.3z M234.1,276.3c-0.6-0.1-1-0.2-1.3-0.2c-1,0-1.7,0.2-2.3,0.7s-0.9,1.1-0.9,1.7
				c0,1.1,0.7,1.7,2,1.7c1,0,1.8-0.5,2.5-1.4V276.3z"/>
			<path class="st0" d="M239.6,272.3h-1.2v-1.5h1.2v-2.2l1.9-0.7v3h2.9v1.5h-2.9v5.3c0,0.9,0.2,1.5,0.5,1.9s0.8,0.6,1.5,0.6
				c0.5,0,1-0.1,1.5-0.4l0.3,1.7c-0.8,0.2-1.6,0.3-2.6,0.3c-0.8,0-1.6-0.3-2.1-0.9c-0.6-0.6-0.9-1.4-0.9-2.4L239.6,272.3
				L239.6,272.3z"/>
			<path class="st0" d="M248,281.5v-9.1h-1.5v-1.6h3.4v10.7H248z M249,266.8c0.3,0,0.6,0.1,0.8,0.3c0.2,0.2,0.3,0.5,0.3,0.8
				s-0.1,0.6-0.3,0.8c-0.2,0.2-0.5,0.3-0.8,0.3s-0.6-0.1-0.8-0.3c-0.2-0.2-0.3-0.5-0.3-0.8s0.1-0.6,0.3-0.8S248.7,266.8,249,266.8z"
				/>
			<path class="st0" d="M252.2,276.1c0-1.6,0.4-3,1.3-4c0.9-1,2.1-1.5,3.5-1.5c1.5,0,2.7,0.5,3.6,1.5c0.8,1,1.3,2.3,1.3,4.1
				c0,1.7-0.4,3.1-1.3,4.1s-2,1.5-3.5,1.5c-1.5,0-2.7-0.5-3.6-1.5C252.6,279.2,252.2,277.8,252.2,276.1z M254.2,276.1
				c0,2.7,0.9,4,2.8,4c0.9,0,1.6-0.4,2.1-1.1s0.8-1.7,0.8-2.9c0-2.6-0.9-4-2.8-4c-0.9,0-1.6,0.4-2.1,1.1
				C254.4,273.9,254.2,274.9,254.2,276.1z"/>
			<path class="st0" d="M270.4,281.5v-6.2c0-1.1-0.2-1.9-0.5-2.4s-0.9-0.7-1.7-0.7c-0.4,0-0.9,0.1-1.4,0.4s-0.8,0.6-1.1,1v7.9h-1.9
				v-10.7h1.3l0.6,1.4c0.6-1,1.6-1.6,3.1-1.6c2.3,0,3.5,1.4,3.5,4.3v6.6L270.4,281.5L270.4,281.5z"/>
			<path class="st0" d="M280.5,276.1c0-1.6,0.4-3,1.3-4s2.1-1.5,3.5-1.5c1.5,0,2.7,0.5,3.6,1.5c0.8,1,1.3,2.3,1.3,4.1
				c0,1.7-0.4,3.1-1.3,4.1s-2,1.5-3.5,1.5s-2.7-0.5-3.6-1.5C280.9,279.2,280.5,277.8,280.5,276.1z M282.5,276.1c0,2.7,0.9,4,2.8,4
				c0.9,0,1.6-0.4,2.1-1.1s0.8-1.7,0.8-2.9c0-2.6-0.9-4-2.8-4c-0.9,0-1.6,0.4-2.1,1.1S282.5,274.9,282.5,276.1z"/>
			<path class="st0" d="M297.9,268.1c-0.4-0.1-0.7-0.2-1.1-0.2c-0.6,0-1.1,0.2-1.4,0.7c-0.4,0.4-0.6,1-0.6,1.7c0,0.2,0,0.4,0,0.6
				h2.2v1.6h-2.2v9.1h-1.9v-9.1h-1.6v-1.6h1.6c0-1.4,0.3-2.4,1-3.2c0.7-0.8,1.6-1.2,2.7-1.2c0.6,0,1.1,0.1,1.8,0.3L297.9,268.1z"/>
			<path class="st0" d="M315.3,267.4l-0.7,1.7c-0.6-0.5-1.6-0.7-3-0.7c-1.3,0-2.3,0.6-3.1,1.7c-0.8,1.1-1.2,2.5-1.2,4.3
				c0,1.7,0.4,3,1.2,4c0.8,1,1.8,1.6,3.1,1.6c1.4,0,2.4-0.5,3.2-1.5l1.1,1.5c-1.2,1.2-2.6,1.7-4.5,1.7s-3.4-0.7-4.5-2.1
				s-1.6-3.2-1.6-5.4c0-2.2,0.6-4,1.8-5.4c1.2-1.4,2.7-2.2,4.5-2.2C313.2,266.6,314.4,266.9,315.3,267.4z"/>
			<path class="st0" d="M324.1,280.3c-0.8,1-1.9,1.4-3.5,1.4c-0.8,0-1.6-0.3-2.2-0.9s-0.9-1.4-0.9-2.3c0-1.1,0.5-2,1.4-2.7
				s2.2-1.1,3.6-1.1c0.4,0,0.9,0.1,1.4,0.3c0-1.7-0.8-2.6-2.3-2.6c-1.2,0-2.1,0.3-2.7,1l-0.8-1.6c0.4-0.3,0.9-0.5,1.5-0.8
				c0.6-0.2,1.2-0.3,1.8-0.3c1.5,0,2.7,0.4,3.4,1.1c0.7,0.7,1.1,1.8,1.1,3.4v3.8c0,0.9,0.3,1.6,0.8,1.9v0.9c-0.8,0-1.3-0.1-1.7-0.3
				C324.5,281.1,324.3,280.8,324.1,280.3z M323.9,276.3c-0.6-0.1-1-0.2-1.3-0.2c-1,0-1.7,0.2-2.3,0.7c-0.6,0.5-0.9,1.1-0.9,1.7
				c0,1.1,0.7,1.7,2,1.7c1,0,1.8-0.5,2.5-1.4L323.9,276.3L323.9,276.3z"/>
			<path class="st0" d="M335.4,281.5v-6.2c0-1.1-0.2-1.9-0.5-2.4s-0.9-0.7-1.7-0.7c-0.4,0-0.9,0.1-1.4,0.4s-0.8,0.6-1.1,1v7.9h-1.9
				v-10.7h1.3l0.6,1.4c0.6-1,1.6-1.6,3.1-1.6c2.3,0,3.5,1.4,3.5,4.3v6.6L335.4,281.5L335.4,281.5z"/>
			<path class="st0" d="M346,280.3c-0.8,1-1.9,1.4-3.5,1.4c-0.8,0-1.6-0.3-2.2-0.9s-0.9-1.4-0.9-2.3c0-1.1,0.5-2,1.4-2.7
				s2.2-1.1,3.6-1.1c0.4,0,0.9,0.1,1.4,0.3c0-1.7-0.8-2.6-2.3-2.6c-1.2,0-2.1,0.3-2.7,1l-0.8-1.6c0.4-0.3,0.9-0.5,1.5-0.8
				c0.6-0.2,1.2-0.3,1.8-0.3c1.5,0,2.7,0.4,3.4,1.1c0.7,0.7,1.1,1.8,1.1,3.4v3.8c0,0.9,0.3,1.6,0.8,1.9v0.9c-0.8,0-1.3-0.1-1.7-0.3
				C346.4,281.1,346.2,280.8,346,280.3z M345.8,276.3c-0.6-0.1-1-0.2-1.3-0.2c-1,0-1.7,0.2-2.3,0.7c-0.6,0.5-0.9,1.1-0.9,1.7
				c0,1.1,0.7,1.7,2,1.7c1,0,1.8-0.5,2.5-1.4L345.8,276.3L345.8,276.3z"/>
			<path class="st0" d="M357.5,281.5v-0.8c-0.7,0.7-1.6,1-2.9,1s-2.4-0.5-3.3-1.4c-0.8-1-1.2-2.2-1.2-3.8c0-1.6,0.5-3,1.4-4.1
				c1-1.1,2.1-1.7,3.4-1.7c1.1,0,1.9,0.3,2.5,0.8v-5h1.9v15.1h-1.8V281.5z M357.5,273.3c-0.5-0.7-1.1-1.1-2-1.1
				c-1,0-1.8,0.4-2.5,1.1c-0.6,0.8-0.9,1.7-0.9,2.9c0,2.6,1.2,3.9,3.5,3.9c0.3,0,0.7-0.1,1.1-0.3c0.4-0.2,0.7-0.4,0.8-0.6V273.3z"/>
			<path class="st0" d="M368.1,280.3c-0.8,1-1.9,1.4-3.5,1.4c-0.8,0-1.6-0.3-2.2-0.9s-0.9-1.4-0.9-2.3c0-1.1,0.5-2,1.4-2.7
				s2.2-1.1,3.6-1.1c0.4,0,0.9,0.1,1.4,0.3c0-1.7-0.8-2.6-2.3-2.6c-1.2,0-2.1,0.3-2.7,1l-0.8-1.6c0.4-0.3,0.9-0.5,1.5-0.8
				c0.6-0.2,1.2-0.3,1.8-0.3c1.5,0,2.7,0.4,3.4,1.1c0.7,0.7,1.1,1.8,1.1,3.4v3.8c0,0.9,0.3,1.6,0.8,1.9v0.9c-0.8,0-1.3-0.1-1.7-0.3
				C368.5,281.1,368.3,280.8,368.1,280.3z M367.9,276.3c-0.6-0.1-1-0.2-1.3-0.2c-1,0-1.7,0.2-2.3,0.7c-0.6,0.5-0.9,1.1-0.9,1.7
				c0,1.1,0.7,1.7,2,1.7c1,0,1.8-0.5,2.5-1.4L367.9,276.3L367.9,276.3z"/>
		</g>
	</g>
	<g>
		<path class="st0" d="M709.1,267.3c-0.9,3.2-1.9,6-3,8.4c-1.1,2.3-2.3,4-3.4,4.9c-1.1,1-2.4,1.4-3.9,1.4v-1.9
			c1.6,0,2.9-0.8,3.8-2.3l-5-10.5h2.3l4,8.9c1.4-2.8,2.4-5.7,3.1-8.9H709.1z"/>
		<path class="st0" d="M719,282c-0.2,0-0.4,0-0.7,0c-1.3,0-2-0.6-2.1-1.9c-0.2-1.1-0.5-1.8-1.1-2.3s-1.4-0.7-2.4-0.7h-0.2v4.9h-1.9
			v-10.7h1.9v4.3h0.3c1,0,1.8-0.2,2.3-0.6s0.9-1,1-1.9c0.2-1.2,0.9-1.9,2.1-1.9c0.2,0,0.4,0,0.7,0v1.6c-0.1,0-0.3,0-0.5,0
			c-0.3,0-0.5,0.2-0.6,0.6c-0.3,1.5-1.2,2.4-2.7,2.9c1.5,0.5,2.5,1.7,2.8,3.5c0.1,0.4,0.3,0.6,0.6,0.6s0.4,0,0.5,0L719,282L719,282z
			"/>
		<path class="st0" d="M723,281.3v4.8h-1.9v-14.9h1.9v0.9c0.7-0.7,1.6-1.1,2.6-1.1c1.5,0,2.7,0.5,3.5,1.4c0.8,1,1.3,2.3,1.3,4.2
			c0,1.6-0.4,3-1.3,4s-2.1,1.5-3.7,1.5c-0.4,0-0.9-0.1-1.4-0.2C723.5,281.7,723.2,281.6,723,281.3z M723,273.6v6.2
			c0.1,0.2,0.4,0.4,0.8,0.5c0.4,0.2,0.7,0.2,1.1,0.2c2.4,0,3.5-1.3,3.5-4c0-1.4-0.3-2.4-0.9-3c-0.6-0.6-1.5-0.9-2.7-0.9
			c-0.3,0-0.6,0.1-1,0.3C723.5,273.1,723.2,273.3,723,273.6z"/>
		<path class="st0" d="M738.4,280.7c-0.8,1-1.9,1.4-3.5,1.4c-0.8,0-1.6-0.3-2.2-0.9c-0.6-0.6-0.9-1.4-0.9-2.3c0-1.1,0.5-2,1.4-2.7
			s2.2-1.1,3.6-1.1c0.4,0,0.9,0.1,1.4,0.2c0-1.7-0.8-2.6-2.3-2.6c-1.2,0-2.1,0.3-2.7,1l-0.8-1.6c0.3-0.3,0.8-0.5,1.4-0.7
			c0.6-0.2,1.3-0.3,1.9-0.3c1.5,0,2.6,0.3,3.3,1s1.1,1.8,1.1,3.4v3.8c0,0.9,0.3,1.6,0.8,1.9v0.9c-0.8,0-1.4-0.1-1.8-0.4
			C738.8,281.5,738.5,281.2,738.4,280.7z M738.2,276.7c-0.7-0.1-1.1-0.2-1.3-0.2c-1,0-1.7,0.2-2.3,0.7s-0.9,1.1-0.9,1.7
			c0,1.1,0.7,1.7,2,1.7c0.9,0,1.8-0.5,2.6-1.4L738.2,276.7L738.2,276.7z"/>
		<path class="st0" d="M742.4,267.2c0.3,0,0.6,0.1,0.8,0.3c0.2,0.2,0.3,0.5,0.3,0.8s-0.1,0.6-0.3,0.8c-0.2,0.2-0.5,0.3-0.8,0.3
			s-0.6-0.1-0.8-0.3c-0.2-0.2-0.3-0.5-0.3-0.8s0.1-0.6,0.3-0.8C741.8,267.4,742.1,267.2,742.4,267.2z M745.8,281.9h-1.9v-9.1h-1.5
			v-1.6h3.4V281.9z M746.4,267.2c0.3,0,0.6,0.1,0.8,0.3c0.2,0.2,0.3,0.5,0.3,0.8s-0.1,0.6-0.3,0.8c-0.2,0.2-0.5,0.3-0.8,0.3
			s-0.6-0.1-0.8-0.3c-0.2-0.2-0.3-0.5-0.3-0.8s0.1-0.6,0.3-0.8C745.8,267.4,746.1,267.2,746.4,267.2z"/>
		<path class="st0" d="M757.5,281.9h-1.9v-4.8h-4.9v4.8h-1.9v-10.7h1.9v4.3h4.9v-4.3h1.9V281.9z"/>
		<path class="st0" d="M768.2,272.1l-0.9,1.3c-0.2-0.2-0.6-0.4-1.1-0.6s-0.9-0.3-1.4-0.3c-1,0-1.9,0.4-2.5,1.1s-0.9,1.7-0.9,3
			c0,1.2,0.3,2.2,0.9,2.8c0.6,0.7,1.5,1,2.6,1c0.9,0,1.7-0.3,2.6-1l0.7,1.6c-1,0.7-2.2,1-3.8,1c-1.4,0-2.6-0.5-3.6-1.5
			c-0.9-1-1.4-2.3-1.4-4s0.5-3.1,1.5-4.1s2.3-1.5,4-1.5c0.6,0,1.2,0.1,1.8,0.4C767.5,271.6,767.9,271.9,768.2,272.1z"/>
		<path class="st0" d="M772.2,275.2c0.9-0.1,1.7-0.2,2.2-0.2c1.4,0,2.4,0.3,3.1,0.9c0.7,0.6,1.1,1.5,1.1,2.6c0,0.9-0.3,1.7-1,2.4
			c-0.7,0.7-1.8,1-3.2,1h-4v-10.7h1.9L772.2,275.2L772.2,275.2z M772.2,280.4c0.5,0,1.2,0.1,2.2,0.1c0.7,0,1.3-0.2,1.7-0.5
			s0.6-0.8,0.6-1.4c0-1.3-0.8-2-2.4-2c-0.5,0-1.3,0.1-2.1,0.2V280.4z"/>
		<path class="st0" d="M789.1,282c-0.2,0-0.4,0-0.7,0c-1.3,0-2-0.6-2.1-1.9c-0.2-1.1-0.5-1.8-1.1-2.3s-1.4-0.7-2.4-0.7h-0.2v4.9
			h-1.9v-10.7h1.9v4.3h0.3c1,0,1.8-0.2,2.3-0.6s0.9-1,1-1.9c0.2-1.2,0.9-1.9,2.1-1.9c0.2,0,0.4,0,0.7,0v1.6c-0.1,0-0.3,0-0.5,0
			c-0.3,0-0.5,0.2-0.6,0.6c-0.3,1.5-1.2,2.4-2.7,2.9c1.5,0.5,2.5,1.7,2.8,3.5c0.1,0.4,0.3,0.6,0.6,0.6s0.4,0,0.5,0L789.1,282
			L789.1,282z"/>
		<path class="st0" d="M800.2,276.8h-7.7c0,0.8,0.1,1.4,0.4,2c0.3,0.5,0.6,1,1.2,1.3c0.5,0.3,1.1,0.5,1.8,0.5c1.1,0,2-0.3,2.7-1
			l0.8,1.5c-0.5,0.4-1,0.7-1.6,0.8c-0.6,0.1-1.3,0.2-2.2,0.2c-1.4,0-2.6-0.5-3.6-1.5c-0.9-1-1.4-2.3-1.4-3.9c0-1.7,0.5-3.1,1.5-4.1
			s2.2-1.6,3.5-1.6c1.5,0,2.7,0.4,3.5,1.2c0.9,0.8,1.3,1.9,1.3,3.3C800.3,275.9,800.3,276.3,800.2,276.8z M795.6,272.6
			c-0.8,0-1.5,0.3-2.1,0.8s-0.9,1.2-0.9,2h5.9c0-0.8-0.3-1.5-0.8-2C797.1,272.9,796.5,272.6,795.6,272.6z"/>
		<path class="st0" d="M817,281.9v-7.1h-6.4v7.1h-2v-14.6h2v5.8h6.4v-5.8h2v14.6H817z"/>
		<path class="st0" d="M827.8,280.7c-0.8,1-1.9,1.4-3.5,1.4c-0.8,0-1.6-0.3-2.2-0.9c-0.6-0.6-0.9-1.4-0.9-2.3c0-1.1,0.5-2,1.4-2.7
			s2.2-1.1,3.6-1.1c0.4,0,0.9,0.1,1.4,0.2c0-1.7-0.8-2.6-2.3-2.6c-1.2,0-2.1,0.3-2.7,1l-0.8-1.6c0.3-0.3,0.8-0.5,1.4-0.7
			c0.6-0.2,1.3-0.3,1.9-0.3c1.5,0,2.6,0.3,3.3,1s1.1,1.8,1.1,3.4v3.8c0,0.9,0.3,1.6,0.8,1.9v0.9c-0.8,0-1.4-0.1-1.8-0.4
			C828.2,281.5,827.9,281.2,827.8,280.7z M827.6,276.7c-0.7-0.1-1.1-0.2-1.3-0.2c-1,0-1.7,0.2-2.3,0.7s-0.9,1.1-0.9,1.7
			c0,1.1,0.7,1.7,2,1.7c0.9,0,1.8-0.5,2.6-1.4L827.6,276.7L827.6,276.7z"/>
		<path class="st0" d="M841.8,285.4h-1.7v-3.5h-7.7v-10.7h1.9v9.1h4.4v-9.1h1.9v9.1h1.2L841.8,285.4L841.8,285.4z"/>
		<path class="st0" d="M844.6,281.9v-9.1h-1.5v-1.6h3.4v10.7H844.6z M845.3,267.1c0.4,0,0.7,0.1,0.9,0.4c0.3,0.3,0.4,0.6,0.4,0.9
			c0,0.4-0.1,0.7-0.4,1c-0.3,0.2-0.6,0.3-0.9,0.3c-0.4,0-0.7-0.1-1-0.4c-0.2-0.3-0.4-0.6-0.4-0.9c0-0.4,0.1-0.7,0.4-0.9
			C844.6,267.2,845,267.1,845.3,267.1z"/>
		<path class="st0" d="M853.5,271c1.5,0,2.7,0.5,3.6,1.5c0.8,1,1.3,2.3,1.3,4c0,1.8-0.4,3.1-1.3,4.1c-0.9,1-2,1.5-3.5,1.5
			s-2.7-0.5-3.6-1.5c-0.9-1-1.3-2.4-1.3-4.1c0-1.6,0.4-3,1.3-4C850.9,271.5,852.1,271,853.5,271z M853.5,280.6
			c0.9,0,1.6-0.4,2.1-1.1s0.7-1.7,0.7-2.9c0-2.6-0.9-4-2.8-4c-0.9,0-1.6,0.4-2.1,1.1s-0.8,1.7-0.8,2.9
			C850.7,279.2,851.6,280.6,853.5,280.6z"/>
		<path class="st0" d="M869.1,281.9h-1.9v-4.8h-4.9v4.8h-1.9v-10.7h1.9v4.3h4.9v-4.3h1.9V281.9z"/>
		<path class="st0" d="M877.7,280.7c-0.8,1-1.9,1.4-3.5,1.4c-0.8,0-1.6-0.3-2.2-0.9c-0.6-0.6-0.9-1.4-0.9-2.3c0-1.1,0.5-2,1.4-2.7
			s2.2-1.1,3.6-1.1c0.4,0,0.9,0.1,1.4,0.2c0-1.7-0.8-2.6-2.3-2.6c-1.2,0-2.1,0.3-2.7,1l-0.8-1.6c0.3-0.3,0.8-0.5,1.4-0.7
			c0.6-0.2,1.3-0.3,1.9-0.3c1.5,0,2.6,0.3,3.3,1s1.1,1.8,1.1,3.4v3.8c0,0.9,0.3,1.6,0.8,1.9v0.9c-0.8,0-1.4-0.1-1.8-0.4
			C878.1,281.5,877.8,281.2,877.7,280.7z M877.5,276.7c-0.7-0.1-1.1-0.2-1.3-0.2c-1,0-1.7,0.2-2.3,0.7s-0.9,1.1-0.9,1.7
			c0,1.1,0.7,1.7,2,1.7c0.9,0,1.8-0.5,2.6-1.4L877.5,276.7L877.5,276.7z"/>
		<path class="st0" d="M891.1,281.9h-1.9v-9.2h-2.9c0,1.5-0.2,2.9-0.5,4.2c-0.3,1.3-0.6,2.3-1.1,3.2c-0.5,0.8-1,1.4-1.5,1.6
			s-1.2,0.4-2,0.4v-1.7c1.2,0,2-0.9,2.5-2.8c0.5-1.8,0.7-3.6,0.7-5.3v-1h6.5v10.6H891.1z"/>
		<path class="st0" d="M895.6,275.2c0.9-0.1,1.7-0.2,2.2-0.2c1.4,0,2.4,0.3,3.1,0.9c0.7,0.6,1.1,1.5,1.1,2.6c0,0.9-0.3,1.7-1,2.4
			c-0.7,0.7-1.8,1-3.2,1h-4v-10.7h1.9L895.6,275.2L895.6,275.2z M895.6,280.4c0.5,0,1.2,0.1,2.2,0.1c0.7,0,1.3-0.2,1.7-0.5
			s0.6-0.8,0.6-1.4c0-1.3-0.8-2-2.4-2c-0.5,0-1.3,0.1-2.1,0.2V280.4z"/>
		<path class="st0" d="M912.8,281.9h-1.9v-4.8H906v4.8h-1.9v-10.7h1.9v4.3h4.9v-4.3h1.9V281.9z"/>
		<path class="st0" d="M924.5,276.8h-7.7c0,0.8,0.1,1.4,0.4,2c0.3,0.5,0.6,1,1.2,1.3c0.5,0.3,1.1,0.5,1.8,0.5c1.1,0,2-0.3,2.7-1
			l0.8,1.5c-0.5,0.4-1,0.7-1.6,0.8c-0.6,0.1-1.3,0.2-2.2,0.2c-1.4,0-2.6-0.5-3.6-1.5c-0.9-1-1.4-2.3-1.4-3.9c0-1.7,0.5-3.1,1.5-4.1
			s2.2-1.6,3.5-1.6c1.5,0,2.7,0.4,3.5,1.2c0.9,0.8,1.3,1.9,1.3,3.3C924.7,275.9,924.6,276.3,924.5,276.8z M919.9,272.6
			c-0.8,0-1.5,0.3-2.1,0.8s-0.9,1.2-0.9,2h5.9c0-0.8-0.3-1.5-0.8-2C921.5,272.9,920.8,272.6,919.9,272.6z"/>
		<path class="st0" d="M932.3,274.5c0-2.1,0.5-3.9,1.6-5.3s2.5-2.1,4.3-2.1c2,0,3.6,0.7,4.7,2c1.1,1.3,1.6,3.1,1.6,5.5
			s-0.5,4.3-1.6,5.6c-1.1,1.4-2.6,2.1-4.7,2.1c-1.9,0-3.3-0.7-4.3-2.2C932.8,278.6,932.3,276.7,932.3,274.5z M934.4,274.5
			c0,1.7,0.3,3.1,1,4.2s1.6,1.7,2.8,1.7c1.4,0,2.4-0.5,3.1-1.5c0.7-1,1.1-2.5,1.1-4.3c0-3.8-1.4-5.6-4.2-5.6c-1.2,0-2.1,0.5-2.8,1.5
			C934.7,271.3,934.4,272.7,934.4,274.5z"/>
		<path class="st0" d="M947.6,274.2c0.5-0.8,1-1.4,1.7-1.8s1.4-0.6,2.2-0.6c1.4,0,2.5,0.4,3.3,1.3s1.2,2.1,1.2,3.6
			c0,1.6-0.4,2.9-1.3,3.9c-0.9,1-2.1,1.5-3.6,1.5c-1.6,0-2.8-0.6-3.6-1.7c-0.9-1.1-1.3-2.7-1.3-4.6c0-1.3,0.1-2.4,0.3-3.4
			s0.6-1.8,1-2.4s1-1.1,1.7-1.5s1.6-0.7,2.7-1l3.4-0.8l0.4,1.8c-2.5,0.5-4,0.9-4.6,1c-0.6,0.2-1.1,0.4-1.6,0.7
			c-0.5,0.3-0.9,0.8-1.2,1.4C947.9,272.3,947.7,273.1,947.6,274.2z M951.1,280.6c0.9,0,1.6-0.3,2-1c0.5-0.7,0.7-1.5,0.7-2.6
			c0-1.2-0.2-2-0.7-2.6s-1.1-0.9-2-0.9s-1.6,0.3-2.2,1c-0.6,0.7-0.8,1.5-0.8,2.5c0,1.1,0.3,1.9,0.8,2.6
			C949.4,280.2,950.2,280.6,951.1,280.6z"/>
		<path class="st0" d="M961.8,268.6c0,1.8-0.9,3.2-2.6,4.3l-0.7-0.9l0.7-0.6c0.4-0.3,0.5-0.7,0.5-1.1c0-0.3-0.2-0.6-0.5-0.9
			c-0.3-0.4-0.5-0.7-0.5-1c0-1,0.5-1.5,1.4-1.5C961.3,266.9,961.8,267.5,961.8,268.6z"/>
		<path class="st0" d="M973.5,281.1c-0.9,0.7-2.2,1-3.8,1c-1.5,0-2.7-0.5-3.6-1.5c-0.9-1-1.4-2.3-1.4-3.9c0-1.7,0.5-3.1,1.5-4.1
			s2.3-1.5,4.1-1.5c1.3,0,2.3,0.4,3.2,1.1l-0.9,1.3c-0.7-0.6-1.5-0.9-2.5-0.9c-0.9,0-1.7,0.3-2.3,0.8c-0.6,0.6-1,1.3-1.1,2.3h4.3
			v1.5h-4.3c0.1,1.1,0.4,2,1.1,2.6c0.6,0.6,1.5,0.9,2.5,0.9c0.9,0,1.8-0.3,2.6-1L973.5,281.1z"/>
		<path class="st0" d="M985.5,285.4h-1.7v-3.5h-7.6v3.5h-1.7v-5h0.8c0.8-1,1.5-2.1,1.9-3.5s0.7-2.8,0.7-4.2v-1.4h6.3v9.2h1.2
			L985.5,285.4L985.5,285.4z M982.5,280.4v-7.7h-2.9c0,1.4-0.2,2.8-0.6,4.2c-0.4,1.4-1,2.5-1.7,3.5H982.5z"/>
		<path class="st0" d="M996.1,281.9h-1.9v-4.8h-5v4.8h-1.9v-10.7h1.9v4.3h4.9v-4.3h1.9L996.1,281.9L996.1,281.9z"/>
		<path class="st0" d="M1004.7,280.7c-0.8,1-1.9,1.4-3.5,1.4c-0.8,0-1.6-0.3-2.2-0.9c-0.6-0.6-0.9-1.4-0.9-2.3c0-1.1,0.5-2,1.4-2.7
			s2.2-1.1,3.6-1.1c0.4,0,0.9,0.1,1.4,0.2c0-1.7-0.8-2.6-2.3-2.6c-1.2,0-2.1,0.3-2.7,1l-0.8-1.6c0.3-0.3,0.8-0.5,1.4-0.7
			c0.6-0.2,1.3-0.3,1.9-0.3c1.5,0,2.6,0.3,3.3,1s1.1,1.8,1.1,3.4v3.8c0,0.9,0.3,1.6,0.8,1.9v0.9c-0.8,0-1.4-0.1-1.8-0.4
			C1005.1,281.5,1004.8,281.2,1004.7,280.7z M1004.5,276.7c-0.7-0.1-1.1-0.2-1.3-0.2c-1,0-1.7,0.2-2.3,0.7s-0.9,1.1-0.9,1.7
			c0,1.1,0.7,1.7,2,1.7c0.9,0,1.8-0.5,2.6-1.4L1004.5,276.7L1004.5,276.7z"/>
		<path class="st0" d="M1018,281.9h-1.9v-4.8h-4.9v4.8h-1.9v-10.7h1.9v4.3h4.9v-4.3h1.9V281.9z"/>
		<path class="st0" d="M1029.4,281.9h-1.9v-4.8h-4.9v4.8h-1.9v-10.7h1.9v4.3h4.9v-4.3h1.9V281.9z"/>
		<path class="st0" d="M1040.1,281.9h-1.8v-4.3h-0.9c-1,0-1.8,0.2-2.3,0.6s-0.9,1.1-1,2.1c-0.2,1.1-0.9,1.7-2,1.7
			c-0.2,0-0.5,0-0.6,0v-1.7c0.1,0,0.2,0,0.4,0c0.3,0,0.5-0.2,0.6-0.6c0.3-1.4,1-2.3,2.3-2.8c-0.8-0.1-1.4-0.4-1.9-0.9
			s-0.7-1.1-0.7-1.7c0-0.7,0.2-1.3,0.6-1.9c0.4-0.5,0.9-0.9,1.5-1.1s1.4-0.3,2.3-0.3c1.1,0,2.3,0.1,3.5,0.2V281.9z M1038.3,276.2
			v-3.6c-0.7-0.1-1.3-0.1-1.9-0.1c-0.8,0-1.4,0.2-1.8,0.5s-0.6,0.7-0.6,1.2c0,0.6,0.3,1.1,0.8,1.4s1.1,0.5,1.9,0.5L1038.3,276.2z"/>
		<path class="st0" d="M1059.2,282c-0.1,0-0.3,0-0.7,0c-0.8,0-1.4-0.2-1.8-0.6s-0.7-1.2-0.8-2.2c-0.2-1.4-0.7-2.5-1.5-3.1
			c-0.7-0.7-1.8-1-3.1-1h-0.1v6.9h-2v-14.6h2v6h0.2c1.2,0,2.2-0.3,3-0.9s1.2-1.4,1.4-2.5c0.2-1,0.4-1.7,0.8-2.1s1-0.6,1.8-0.6
			c0.3,0,0.5,0,0.7,0v1.7c0,0-0.2,0-0.4,0c-0.3,0-0.4,0.1-0.6,0.3s-0.3,0.5-0.4,1.1c-0.2,0.9-0.6,1.7-1.2,2.4
			c-0.6,0.7-1.4,1.2-2.3,1.4c2,0.7,3.2,2.2,3.7,4.5c0.1,0.7,0.3,1.1,0.4,1.3c0.1,0.2,0.3,0.3,0.6,0.3c0.1,0,0.3,0,0.4,0L1059.2,282
			L1059.2,282z"/>
		<path class="st0" d="M1067.4,280.7c-0.8,1-1.9,1.4-3.5,1.4c-0.8,0-1.6-0.3-2.2-0.9s-0.9-1.4-0.9-2.3c0-1.1,0.5-2,1.4-2.7
			s2.2-1.1,3.6-1.1c0.4,0,0.9,0.1,1.4,0.2c0-1.7-0.8-2.6-2.3-2.6c-1.2,0-2.1,0.3-2.7,1l-0.8-1.6c0.3-0.3,0.8-0.5,1.4-0.7
			s1.3-0.3,1.9-0.3c1.5,0,2.6,0.3,3.3,1c0.7,0.7,1.1,1.8,1.1,3.4v3.8c0,0.9,0.3,1.6,0.8,1.9v0.9c-0.8,0-1.4-0.1-1.8-0.4
			C1067.8,281.5,1067.5,281.2,1067.4,280.7z M1067.2,276.7c-0.7-0.1-1.1-0.2-1.3-0.2c-1,0-1.7,0.2-2.3,0.7c-0.6,0.5-0.9,1.1-0.9,1.7
			c0,1.1,0.7,1.7,2,1.7c0.9,0,1.8-0.5,2.6-1.4L1067.2,276.7L1067.2,276.7z"/>
		<path class="st0" d="M1080.7,281.9h-1.9v-4.8h-4.9v4.8h-1.9v-10.7h1.9v4.3h4.9v-4.3h1.9V281.9z"/>
		<path class="st0" d="M1089.3,280.7c-0.8,1-1.9,1.4-3.5,1.4c-0.8,0-1.6-0.3-2.2-0.9s-0.9-1.4-0.9-2.3c0-1.1,0.5-2,1.4-2.7
			s2.2-1.1,3.6-1.1c0.4,0,0.9,0.1,1.4,0.2c0-1.7-0.8-2.6-2.3-2.6c-1.2,0-2.1,0.3-2.7,1l-0.8-1.6c0.3-0.3,0.8-0.5,1.4-0.7
			s1.3-0.3,1.9-0.3c1.5,0,2.6,0.3,3.3,1c0.7,0.7,1.1,1.8,1.1,3.4v3.8c0,0.9,0.3,1.6,0.8,1.9v0.9c-0.8,0-1.4-0.1-1.8-0.4
			C1089.7,281.5,1089.4,281.2,1089.3,280.7z M1089.1,276.7c-0.7-0.1-1.1-0.2-1.3-0.2c-1,0-1.7,0.2-2.3,0.7c-0.6,0.5-0.9,1.1-0.9,1.7
			c0,1.1,0.7,1.7,2,1.7c0.9,0,1.8-0.5,2.6-1.4L1089.1,276.7L1089.1,276.7z"/>
		<path class="st0" d="M1103.8,285.4h-1.7v-3.5h-7.6v3.5h-1.7v-5h0.8c0.8-1,1.5-2.1,1.9-3.5s0.7-2.8,0.7-4.2v-1.4h6.3v9.2h1.2
			L1103.8,285.4L1103.8,285.4z M1100.8,280.4v-7.7h-2.9c0,1.4-0.2,2.8-0.6,4.2c-0.4,1.4-1,2.5-1.7,3.5H1100.8z"/>
		<path class="st0" d="M1114.6,281.9h-1.9v-7.3l-6.7,7.6h-0.4v-11h1.9v7.3l6.7-7.6h0.4V281.9z"/>
	</g>
</g>
</svg>
